<svg xmlns="http://www.w3.org/2000/svg" viewBox="0 0 1024 1024"><path fill="#FDA523" d="M312.11 278.96q-.73-.81-4.56-3.52-46.02-32.65-96.44-70.29-4.17-3.12-8.13-6.59c-3.76-3.28-1.89-6.96 1.41-9.41q3.92-2.91 19.14-11.92 5.74-3.39 12.05-1.11 6.24 2.26 37.18 12.87 1.8.62 120.47 40.06 2.43.8 6.22-1.36 58.85-33.49 77.77-44.71 11.8-7 23.83-10.41 9.24-2.62 20.18-1.4 21.27 2.38 39.4 14.23c4.68 3.06 8.2 10.42 7.02 16.08q-1.49 7.16-6.95 14.02-6.83 8.58-12.95 14.01c-13.81 12.26-29.63 22.67-45.73 32.01q-18.29 10.6-41.58 23.68-3.31 1.85-4.15 5.91c-1.07 5.15-2.7 10.27-4.31 16.89q-11.09 45.59-22.59 92.93-2.09 8.6-3.53 13.19c-1.07 3.41-2.92 7.5-5.92 10.32-6.96 6.53-15.59 10.8-24.05 15.23-3.73 1.96-8.13 4.66-12.75 6.73q-5.1 2.29-9.53-.39a2.37 2.35-88.6 0 1-.88-.93q-1.27-2.39-1.48-4.08c-3.42-27.26-6.53-57.62-9.92-88.28-.43-3.87-.43-7.04-1.73-10.92a2.16 2.16 0 0 0-2.95-1.27q-18.49 8.56-39.1 17.5-19.32 8.37-39.79 11.49-2.12.32-8 .69-2.56.16-3.9 2.66-.97 1.81-10.11 20.89-2.46 5.16-4.91 8.08c-3.71 4.43-11.67 4.2-15.16-.48q-1.31-1.75-2.28-7.29-2.74-15.67-4.64-34.31c-.35-3.44-1.9-5.28-4.81-7.43q-21.94-16.21-45.26-35.09c-3.52-2.84-11.81-7.65-7.07-13.1q1.6-1.83 4.13-3.4 11.88-7.36 19.63-11.56 2.33-1.27 5.45-1.13a3.01 2.9-32.1 0 1 .96.2q17.16 6.61 41.13 16.41 1.89.77 7.48 2.81c4.21 1.54 7.92 3.78 12.38 4.57a1.93 1.92-56.2 0 0 1.34-.27l47.74-30.89a1.27 1.26-37.8 0 0 .25-1.92Z"/><rect width="48.38" height="17.64" x="-24.19" y="-8.82" fill="#FDA523" rx="6.18" transform="rotate(20.2 -382.366 1912.95)"/><rect width="47.42" height="17.54" x="-23.71" y="-8.77" fill="#FDA523" rx="5.71" transform="rotate(32.4 -129.94 1345.487)"/><rect width="17.38" height="47.4" x="-8.69" y="-23.7" fill="#FDA523" rx="6.66" transform="rotate(-38.4 842.695 -921.6)"/><rect width="17.54" height="49.26" x="-8.77" y="-24.63" fill="#FDA523" rx="6.89" transform="rotate(-24.5 1281.095 -1631.427)"/><rect width="17.94" height="49.34" x="-8.97" y="-24.67" fill="#FDA523" rx="6.51" transform="rotate(-8.5 3457.949 -5241.868)"/><rect width="17.66" height="50.02" x="-8.83" y="-25.01" fill="#FDA523" rx="6.41" transform="rotate(4 -6592.288 3434.068)"/><path fill="#FDA523" d="M708.36 673.04c-5.85.69-9.8-1.67-13.58-6.04q-23.53-27.22-42.6-59.91c-5.93-10.17-10.3-19.76-13.73-30.09q-1.69-5.12-2.45-10.04c-3.85-24.97 3.66-47.14 21.42-64.49 16.13-15.74 38.93-22.4 60.85-18.35q26.34 4.86 43.55 26.63 17.35 21.96 14.74 50.54c-1.16 12.72-6.48 25.6-12.58 36.69q-20.75 37.7-47.17 69.34-2.6 3.1-7.43 5.43a3.34 3.19-59.6 0 1-1.02.29Zm30.76-118.91a33.2 33.2 0 0 0-33.2-33.2 33.2 33.2 0 0 0-33.2 33.2 33.2 33.2 0 0 0 33.2 33.2 33.2 33.2 0 0 0 33.2-33.2Z"/><rect width="17.88" height="49.56" x="-8.94" y="-24.78" fill="#FDA523" rx="6.58" transform="rotate(-13.8 2351.065 -670.953)"/><path fill="#FDA523" d="M270.58 619.99a4.34 4.34 0 0 1-1.64 5.92l-5.78 3.27a7.77 6.88 60.5 0 1-9.82-3.38l-16.13-28.51a7.77 6.88 60.5 0 1 2.16-10.15l5.78-3.27a4.34 4.34 0 0 1 5.92 1.64l19.51 34.48Z"/><rect width="48.76" height="17.72" x="-24.38" y="-8.86" fill="#FDA523" rx="6.38" transform="rotate(44.9 -653.87 691.185)"/><rect width="53.04" height="17.98" x="-26.52" y="-8.99" fill="#FDA523" rx="6.71" transform="rotate(-29.3 1669.596 -903.153)"/><rect width="48.98" height="17.92" x="-24.49" y="-8.96" fill="#FDA523" rx="6.05" transform="rotate(28.5 -1211.315 1052.712)"/><path fill="#FDA523" d="M584.91 740.78q-11.01 2.64-21.47 4.41-1.9.32-3.92-.75c-3.22-1.71-3.95-8.02-3.83-11.19q.18-5 5.37-5.94 11.15-2.01 19.65-4.05 8.5-2.04 19.35-5.3 5.05-1.52 7.48 2.86c1.54 2.77 3.75 8.72 1.66 11.71q-1.32 1.87-3.16 2.44-10.12 3.17-21.13 5.81ZM451.02 732.06q.74 4.87-.84 9.38c-2.09 5.98-6.93 4.26-11.5 3.74q-2.18-.25-4.83-.97-22.11-6.09-30.5-8.56-2.18-.64-3.83-2.73a2.08 2.05 20.3 0 1-.4-.85q-1.06-4.91 1.89-10.28 2.6-4.73 7.59-3.2 22.88 7.02 31.15 8.43 5.68.97 8.76 2.02.89.3 2.13 2.06a2.32 2.21-68 0 1 .38.96ZM502.91 732.82q8.66.08 19.87-.44 5.22-.25 6.5 4.54c.82 3.03 1.51 9.29-1.22 11.65q-1.71 1.49-3.62 1.6-10.49.61-21.71.5-11.21-.11-21.69-.93-1.91-.14-3.59-1.66c-2.68-2.42-1.87-8.66-.99-11.67q1.37-4.77 6.59-4.42 11.2.74 19.86.83Z"/></svg>