<svg xmlns="http://www.w3.org/2000/svg" viewBox="0 0 225 225"><g fill="none" stroke="#807e54" stroke-width="2"><path d="M195.71 50.03c-3.1-.11-7.86 2.44-11.78 2.83q-8.19.81-16.46-.8c-3.23-.63-9.16-1.48-12.35-2.44q-10.96-3.28-25.16-7.33-10.2-2.91-18.77-4.2c-7.23-1.08-12.58-1.25-19.25 1.83q-2.14.98-6.41 5.74-5.54 6.18-13.16 11.7-1.92 1.38-3.79 1.68a1.02 1.01-81.1 0 1-1.06-1.46c2.25-4.53 5.36-12.85-1.62-15.08q-8.65-2.76-17.52.26a.73.73 0 0 0-.49.61q-.54 5.32-2.29 10.29-.29.83-.18 5.14a.97.96-81.9 0 0 .66.89c3.42 1.09 5.56.97 7.21 3.86a2.17 2.16-41.3 0 1-.16 2.4c-3.12 4.11-7.23 5.92-12.71 8.98q-2.13 1.19-3.28 3.15a3.96 3.46 43.8 0 0 .36 4.08c1.48 2.05 2.88 3.08 3.58 6.27q.61 2.74 1.83 7.67.79 3.22 5.5 11.01 4.32 7.13 8.5 14.48c2.45 4.31 7.95 8.74 14.66 13.57 16.08 11.59 25.83 17.38 35.5 29.57 6.98 8.8 13.61 18.99 18.69 28.5q.71 1.33 1.85 2.06a.98.97 15.7 0 0 1.5-.84q-.05-2.07-.68-3.84c-6.14-17.18-9.31-27.52-16.14-38.42q-4.81-7.68-14.03-13.36c-3.54-2.18-5.69-3.98-8.12-7.39q-8.56-12-13.53-24.39c-2.92-7.29-14.04-8.5-11.64-16.82 4.72-16.4 16.97-27.57 34.28-28.66q12.52-.79 24.98 1.97 8.98 1.98 15.74 2.99c14.42 2.15 27.29-.53 40.72-5.6q9.31-3.51 15.71-8.91a1.13 1.13 0 0 0-.69-1.99" vector-effect="non-scaling-stroke"/><path d="M92.44 112.6q.78-1.13 1.38-2.81 2.68-7.51 5.37-15.5c2.14-6.35 5.12-12.27 8.87-18.48q1.41-2.33 1.73-4.37a2.98 2.82 14 0 0-2.02-3.16q-5.41-1.82-8.07 3.5-8.29 16.59-10.19 36.74-.2 2.18.48 3.83a1.4 1.4 0 0 0 2.45.25M102.56 130.85a1.08 1.08 0 0 0 2.07.01c4.58-14.68 9.88-24.78 18.41-40.82q2.63-4.96 6.24-13.12a4.18 4.18 0 0 0-2.52-5.8l-.12-.04a5.71 5.71 0 0 0-6.74 2.76q-7.44 13.96-13.01 30.05c-2.82 8.12-6.7 19.15-4.33 26.96M127.58 172.62a1.14 1.14 0 0 0 2-.33c5.91-17.93 12.42-36.03 21.77-50.69q11.97-18.75 13.89-21.83 6.77-10.93 9.58-20.89 1.46-5.18-3.53-6.46-5.66-1.44-8.12 4.03c-5.77 12.83-10.97 23.12-17.01 34.43q-4.8 8.97-7.42 15.42c-4.78 11.81-8.95 22.05-10.96 33.2-.73 4.07-2.03 10.68-.2 13.12M118.3 148.91q.08-.17 3.81-12.54c6.26-20.73 20.08-37.33 28.95-56.82 1.06-2.33 1.8-5.01-1.12-6.35-5.52-2.54-8.38.7-11.12 5.75q-9.03 16.58-11.42 21.44-10.19 20.69-11.93 44.36-.2 2.74.24 3.79.46 1.13 1.54 1.08a1.22 1.2-78.8 0 0 1.05-.71" vector-effect="non-scaling-stroke"/></g><path fill="#013195" d="M225 0v225H0V0h225Zm-29.29 50.03c-3.1-.11-7.86 2.44-11.78 2.83q-8.19.81-16.46-.8c-3.23-.63-9.16-1.48-12.35-2.44q-10.96-3.28-25.16-7.33-10.2-2.91-18.77-4.2c-7.23-1.08-12.58-1.25-19.25 1.83q-2.14.98-6.41 5.74-5.54 6.18-13.16 11.7-1.92 1.38-3.79 1.68a1.02 1.01-81.1 0 1-1.06-1.46c2.25-4.53 5.36-12.85-1.62-15.08q-8.65-2.76-17.52.26a.73.73 0 0 0-.49.61q-.54 5.32-2.29 10.29-.29.83-.18 5.14a.97.96-81.9 0 0 .66.89c3.42 1.09 5.56.97 7.21 3.86a2.17 2.16-41.3 0 1-.16 2.4c-3.12 4.11-7.23 5.92-12.71 8.98q-2.13 1.19-3.28 3.15a3.96 3.46 43.8 0 0 .36 4.08c1.48 2.05 2.88 3.08 3.58 6.27q.61 2.74 1.83 7.67.79 3.22 5.5 11.01 4.32 7.13 8.5 14.48c2.45 4.31 7.95 8.74 14.66 13.57 16.08 11.59 25.83 17.38 35.5 29.57 6.98 8.8 13.61 18.99 18.69 28.5q.71 1.33 1.85 2.06a.98.97 15.7 0 0 1.5-.84q-.05-2.07-.68-3.84c-6.14-17.18-9.31-27.52-16.14-38.42q-4.81-7.68-14.03-13.36c-3.54-2.18-5.69-3.98-8.12-7.39q-8.56-12-13.53-24.39c-2.92-7.29-14.04-8.5-11.64-16.82 4.72-16.4 16.97-27.57 34.28-28.66q12.52-.79 24.98 1.97 8.98 1.98 15.74 2.99c14.42 2.15 27.29-.53 40.72-5.6q9.31-3.51 15.71-8.91a1.13 1.13 0 0 0-.69-1.99ZM92.44 112.6q.78-1.13 1.38-2.81 2.68-7.51 5.37-15.5c2.14-6.35 5.12-12.27 8.87-18.48q1.41-2.33 1.73-4.37a2.98 2.82 14 0 0-2.02-3.16q-5.41-1.82-8.07 3.5-8.29 16.59-10.19 36.74-.2 2.18.48 3.83a1.4 1.4 0 0 0 2.45.25Zm10.12 18.25a1.08 1.08 0 0 0 2.07.01c4.58-14.68 9.88-24.78 18.41-40.82q2.63-4.96 6.24-13.12a4.18 4.18 0 0 0-2.52-5.8l-.12-.04a5.71 5.71 0 0 0-6.74 2.76q-7.44 13.96-13.01 30.05c-2.82 8.12-6.7 19.15-4.33 26.96Zm25.02 41.77a1.14 1.14 0 0 0 2-.33c5.91-17.93 12.42-36.03 21.77-50.69q11.97-18.75 13.89-21.83 6.77-10.93 9.58-20.89 1.46-5.18-3.53-6.46-5.66-1.44-8.12 4.03c-5.77 12.83-10.97 23.12-17.01 34.43q-4.8 8.97-7.42 15.42c-4.78 11.81-8.95 22.05-10.96 33.2-.73 4.07-2.03 10.68-.2 13.12Zm-9.28-23.71q.08-.17 3.81-12.54c6.26-20.73 20.08-37.33 28.95-56.82 1.06-2.33 1.8-5.01-1.12-6.35-5.52-2.54-8.38.7-11.12 5.75q-9.03 16.58-11.42 21.44-10.19 20.69-11.93 44.36-.2 2.74.24 3.79.46 1.13 1.54 1.08a1.22 1.2-78.8 0 0 1.05-.71Z"/><path fill="#ffcb12" d="M195.71 50.03a1.13 1.13 0 0 1 .69 1.99q-6.4 5.4-15.71 8.91c-13.43 5.07-26.3 7.75-40.72 5.6q-6.76-1.01-15.74-2.99-12.46-2.76-24.98-1.97c-17.31 1.09-29.56 12.26-34.28 28.66-2.4 8.32 8.72 9.53 11.64 16.82q4.97 12.39 13.53 24.39c2.43 3.41 4.58 5.21 8.12 7.39q9.22 5.68 14.03 13.36c6.83 10.9 10 21.24 16.14 38.42q.63 1.77.68 3.84a.98.97 15.7 0 1-1.5.84q-1.14-.73-1.85-2.06c-5.08-9.51-11.71-19.7-18.69-28.5-9.67-12.19-19.42-17.98-35.5-29.57-6.71-4.83-12.21-9.26-14.66-13.57q-4.18-7.35-8.5-14.48-4.71-7.79-5.5-11.01-1.22-4.93-1.83-7.67c-.7-3.19-2.1-4.22-3.58-6.27a3.96 3.46 43.8 0 1-.36-4.08q1.15-1.96 3.28-3.15c5.48-3.06 9.59-4.87 12.71-8.98a2.17 2.16-41.3 0 0 .16-2.4c-1.65-2.89-3.79-2.77-7.21-3.86a.97.96-81.9 0 1-.66-.89q-.11-4.31.18-5.14 1.75-4.97 2.29-10.29a.73.73 0 0 1 .49-.61q8.87-3.02 17.52-.26c6.98 2.23 3.87 10.55 1.62 15.08a1.02 1.01-81.1 0 0 1.06 1.46q1.87-.3 3.79-1.68 7.62-5.52 13.16-11.7 4.27-4.76 6.41-5.74c6.67-3.08 12.02-2.91 19.25-1.83q8.57 1.29 18.77 4.2 14.2 4.05 25.16 7.33c3.19.96 9.12 1.81 12.35 2.44q8.27 1.61 16.46.8c3.92-.39 8.68-2.94 11.78-2.83Z"/><path fill="#ffcb12" d="M92.44 112.6a1.4 1.4 0 0 1-2.45-.25q-.68-1.65-.48-3.83 1.9-20.15 10.19-36.74 2.66-5.32 8.07-3.5a2.98 2.82 14 0 1 2.02 3.16q-.32 2.04-1.73 4.37c-3.75 6.21-6.73 12.13-8.87 18.48q-2.69 7.99-5.37 15.5-.6 1.68-1.38 2.81ZM102.56 130.85c-2.37-7.81 1.51-18.84 4.33-26.96q5.57-16.09 13.01-30.05a5.71 5.71 0 0 1 6.74-2.76l.12.04a4.18 4.18 0 0 1 2.52 5.8q-3.61 8.16-6.24 13.12c-8.53 16.04-13.83 26.14-18.41 40.82a1.08 1.08 0 0 1-2.07-.01ZM127.58 172.62c-1.83-2.44-.53-9.05.2-13.12 2.01-11.15 6.18-21.39 10.96-33.2q2.62-6.45 7.42-15.42c6.04-11.31 11.24-21.6 17.01-34.43q2.46-5.47 8.12-4.03 4.99 1.28 3.53 6.46-2.81 9.96-9.58 20.89-1.92 3.08-13.89 21.83c-9.35 14.66-15.86 32.76-21.77 50.69a1.14 1.14 0 0 1-2 .33ZM118.3 148.91a1.22 1.2-78.8 0 1-1.05.71q-1.08.05-1.54-1.08-.44-1.05-.24-3.79 1.74-23.67 11.93-44.36 2.39-4.86 11.42-21.44c2.74-5.05 5.6-8.29 11.12-5.75 2.92 1.34 2.18 4.02 1.12 6.35-8.87 19.49-22.69 36.09-28.95 56.82q-3.73 12.37-3.81 12.54Z"/></svg>