<svg xmlns="http://www.w3.org/2000/svg" viewBox="0 0 225 225"><g fill="none" stroke="#dfeb80" stroke-width="2"><path d="M109.31 0q-3.52.34-7.04.61C81.24 2.24 60.11 10.67 44.01 23.26Q2.75 55.53 0 109.38M116.37 0q3.04.38 6.09.6c22.98 1.67 45.67 11.39 62.69 25.99q37.42 32.1 39.85 82.8M225 116.3q-.35 2.56-.51 5.14c-1.33 21.37-9.81 42.93-22.51 59.29Q170 221.91 116.42 225M109.14 225C53.9 222.56 9.67 183.31 1.18 128.73.63 125.2.57 120.72 0 116.74" vector-effect="non-scaling-stroke"/><path d="M119.52 54.07q-25.02-.65-36.77.43c-11.56 1.07-21.86 4.05-30.21 12.51-11.63 11.8-13.24 31.06-1.5 43.21q5.56 5.74 9.98 8.52 11.89 7.45 16.42 10.57c4.39 3.03 9.19 6.76 9.74 12.33.58 5.81-3.49 10.77-8.44 13.14q-7.09 3.4-16.74 3.37-12.29-.05-24.23-2.96a.62.61-72.8 0 0-.73.39l-6.07 17.05a.8.79 19.7 0 0 .49 1.02q3.63 1.28 7.49 1.91c15.09 2.46 30.68 3.24 45.08-2.02 14.91-5.44 27.23-18.56 26.94-35.23q-.23-12.91-10.98-22.32c-8.67-7.59-18.74-12.81-27.09-19.36Q65.73 91 68.31 82.66c2.14-6.96 11.95-8.86 18.19-8.97q14.88-.25 25.47-.11a.78.78 0 0 0 .74-.49l7.31-18.27a.55.55 0 0 0-.5-.75M124.77 73.37h34.87a.18.18 0 0 1 .17.25l-30.93 77.36a.52.52 0 0 0 .48.71h21.75a.64.64 0 0 0 .6-.41l37.89-94.76a1.9 1.9 0 0 0-.99-2.45q-.68-.31-1.62-.31-29.39.01-54.36-.01a.91.9-78.9 0 0-.84.57l-7.4 18.5a.41.4 10.8 0 0 .38.55" vector-effect="non-scaling-stroke"/></g><path fill="#fff" d="M109.31 0q-3.52.34-7.04.61C81.24 2.24 60.11 10.67 44.01 23.26Q2.75 55.53 0 109.38V0h109.31Z"/><path fill="#bed600" d="M116.37 0q3.04.38 6.09.6c22.98 1.67 45.67 11.39 62.69 25.99q37.42 32.1 39.85 82.8v6.91q-.35 2.56-.51 5.14c-1.33 21.37-9.81 42.93-22.51 59.29Q170 221.91 116.42 225h-7.28C53.9 222.56 9.67 183.31 1.18 128.73.63 125.2.57 120.72 0 116.74v-7.36q2.75-53.85 44.01-86.12C60.11 10.67 81.24 2.24 102.27.61q3.52-.27 7.04-.61h7.06Zm3.15 54.07q-25.02-.65-36.77.43c-11.56 1.07-21.86 4.05-30.21 12.51-11.63 11.8-13.24 31.06-1.5 43.21q5.56 5.74 9.98 8.52 11.89 7.45 16.42 10.57c4.39 3.03 9.19 6.76 9.74 12.33.58 5.81-3.49 10.77-8.44 13.14q-7.09 3.4-16.74 3.37-12.29-.05-24.23-2.96a.62.61-72.8 0 0-.73.39l-6.07 17.05a.8.79 19.7 0 0 .49 1.02q3.63 1.28 7.49 1.91c15.09 2.46 30.68 3.24 45.08-2.02 14.91-5.44 27.23-18.56 26.94-35.23q-.23-12.91-10.98-22.32c-8.67-7.59-18.74-12.81-27.09-19.36Q65.73 91 68.31 82.66c2.14-6.96 11.95-8.86 18.19-8.97q14.88-.25 25.47-.11a.78.78 0 0 0 .74-.49l7.31-18.27a.55.55 0 0 0-.5-.75Zm5.25 19.3h34.87a.18.18 0 0 1 .17.25l-30.93 77.36a.52.52 0 0 0 .48.71h21.75a.64.64 0 0 0 .6-.41l37.89-94.76a1.9 1.9 0 0 0-.99-2.45q-.68-.31-1.62-.31-29.39.01-54.36-.01a.91.9-78.9 0 0-.84.57l-7.4 18.5a.41.4 10.8 0 0 .38.55Z"/><path fill="#fff" d="M225 0v109.39q-2.43-50.7-39.85-82.8C168.13 11.99 145.44 2.27 122.46.6q-3.05-.22-6.09-.6H225ZM120.02 54.82l-7.31 18.27a.78.78 0 0 1-.74.49q-10.59-.14-25.47.11c-6.24.11-16.05 2.01-18.19 8.97Q65.73 91 72.9 96.63c8.35 6.55 18.42 11.77 27.09 19.36q10.75 9.41 10.98 22.32c.29 16.67-12.03 29.79-26.94 35.23-14.4 5.26-29.99 4.48-45.08 2.02q-3.86-.63-7.49-1.91a.8.79 19.7 0 1-.49-1.02l6.07-17.05a.62.61-72.8 0 1 .73-.39q11.94 2.91 24.23 2.96 9.65.03 16.74-3.37c4.95-2.37 9.02-7.33 8.44-13.14-.55-5.57-5.35-9.3-9.74-12.33q-4.53-3.12-16.42-10.57-4.42-2.78-9.98-8.52c-11.74-12.15-10.13-31.41 1.5-43.21 8.35-8.46 18.65-11.44 30.21-12.51q11.75-1.08 36.77-.43a.55.55 0 0 1 .5.75Z"/><path fill="#fff" d="m124.39 72.82 7.4-18.5a.91.9-78.9 0 1 .84-.57q24.97.02 54.36.01.94 0 1.62.31a1.9 1.9 0 0 1 .99 2.45l-37.89 94.76a.64.64 0 0 1-.6.41h-21.75a.52.52 0 0 1-.48-.71l30.93-77.36a.18.18 0 0 0-.17-.25h-34.87a.41.4 10.8 0 1-.38-.55ZM225 116.3V225H116.42q53.58-3.09 85.56-44.27c12.7-16.36 21.18-37.92 22.51-59.29q.16-2.58.51-5.14ZM109.14 225H0V116.74c.57 3.98.63 8.46 1.18 11.99C9.67 183.31 53.9 222.56 109.14 225Z"/></svg>