<svg xmlns="http://www.w3.org/2000/svg" viewBox="0 0 1000 1000"><path fill="none" stroke="#f38082" stroke-width="2" d="M438.42 482.92q0 40.37.02 40.81a.33.33 0 0 0 .33.32h94.71a.6.6 0 0 1 .6.6v95.49a.32.32 0 0 0 .32.32q17.26.02 40.67.02 23.42 0 40.68-.02a.32.32 0 0 0 .32-.32v-95.49a.6.6 0 0 1 .6-.6h94.71a.33.33 0 0 0 .33-.32q.01-.45.01-40.81 0-40.37-.01-40.81a.33.33 0 0 0-.33-.32h-94.71a.6.6 0 0 1-.6-.6V345.7a.32.32 0 0 0-.32-.32q-17.26-.02-40.68-.02-23.41 0-40.67.02a.32.32 0 0 0-.32.32v95.49a.6.6 0 0 1-.6.6h-94.71a.33.33 0 0 0-.33.32q-.02.45-.02 40.81" vector-effect="non-scaling-stroke"/><path fill="#e60005" d="M559.59 255h237.37a.39.39 0 0 1 .38.48L686.06 709.7a.39.39 0 0 1-.38.3h-483.5a.39.39 0 0 1-.3-.63l357.4-454.22a.39.39 0 0 1 .31-.15ZM438.42 482.92q0 40.37.02 40.81a.33.33 0 0 0 .33.32h94.71a.6.6 0 0 1 .6.6v95.49a.32.32 0 0 0 .32.32q17.26.02 40.67.02 23.42 0 40.68-.02a.32.32 0 0 0 .32-.32v-95.49a.6.6 0 0 1 .6-.6h94.71a.33.33 0 0 0 .33-.32q.01-.45.01-40.81 0-40.37-.01-40.81a.33.33 0 0 0-.33-.32h-94.71a.6.6 0 0 1-.6-.6V345.7a.32.32 0 0 0-.32-.32q-17.26-.02-40.68-.02-23.41 0-40.67.02a.32.32 0 0 0-.32.32v95.49a.6.6 0 0 1-.6.6h-94.71a.33.33 0 0 0-.33.32q-.02.45-.02 40.81Z"/><path fill="#fff" d="M575.07 345.36q23.42 0 40.68.02a.32.32 0 0 1 .32.32v95.49a.6.6 0 0 0 .6.6h94.71a.33.33 0 0 1 .33.32q.01.44.01 40.81 0 40.36-.01 40.81a.33.33 0 0 1-.33.32h-94.71a.6.6 0 0 0-.6.6v95.49a.32.32 0 0 1-.32.32q-17.26.02-40.68.02-23.41 0-40.67-.02a.32.32 0 0 1-.32-.32v-95.49a.6.6 0 0 0-.6-.6h-94.71a.33.33 0 0 1-.33-.32q-.02-.44-.02-40.81 0-40.36.02-40.81a.33.33 0 0 1 .33-.32h94.71a.6.6 0 0 0 .6-.6V345.7a.32.32 0 0 1 .32-.32q17.26-.02 40.67-.02Z"/></svg>