<svg xmlns="http://www.w3.org/2000/svg" viewBox="0 0 600 600"><g fill="none" stroke="#e4808c" stroke-width="2"><path d="M95.77 454.17q.09.04.12.18a.05.04-9.2 0 1-.04.04l-13.89 3.86a.4.4 0 0 0-.21.63c56.94 77.89 152.26 120.77 248.51 109.39q76.49-9.05 136.06-55.54C532.76 460.89 571.67 379.61 569.97 296c-1.75-85.56-41.9-163.32-110.57-213.8-59.7-43.91-134.98-60.96-207.88-47.67q-40.48 7.38-77.1 26.66a.36.35-49.7 0 0 .05.65c39.09 13.18 77.07 30.14 111.56 52.37 34.06 21.95 66.38 51.47 82.63 89.34q14.42 33.57 6.52 69.18c-5.63 25.37-21.34 47.4-40.08 65.35a.24.24 0 0 0 .18.41q85.47-5.98 183.34-12.8 1.69-.11 2.94 1.24c2.35 2.53.12 5.25-2.6 6.03q-42.04 12.14-411.97 118.11-.07.02-.78.06a.01.01 0 0 0 0 .02q.04.02.09.02a.15.09-36.1 0 1-.1.22q-6.94 2.01-10.44 2.74a.02.02 0 0 0 .01.04" vector-effect="non-scaling-stroke"/><path d="M155.54 72.04C75.79 122.55 27.3 212.78 30.23 307.22q2.31 74.25 41.32 136.59a.69.67 66.2 0 0 .75.3q25.97-7.01 50.25-18.3 20.46-9.5 37.91-22.59c33.05-24.77 54.22-58.57 64.5-98.24 21.44-82.77 1.14-178.37-68.82-232.91a.52.51 47.8 0 0-.6-.03" vector-effect="non-scaling-stroke"/></g><path fill="#fff" d="M600 0v600H0V0h600ZM95.77 454.17q.09.04.12.18a.05.04-9.2 0 1-.04.04l-13.89 3.86a.4.4 0 0 0-.21.63c56.94 77.89 152.26 120.77 248.51 109.39q76.49-9.05 136.06-55.54C532.76 460.89 571.67 379.61 569.97 296c-1.75-85.56-41.9-163.32-110.57-213.8-59.7-43.91-134.98-60.96-207.88-47.67q-40.48 7.38-77.1 26.66a.36.35-49.7 0 0 .05.65c39.09 13.18 77.07 30.14 111.56 52.37 34.06 21.95 66.38 51.47 82.63 89.34q14.42 33.57 6.52 69.18c-5.63 25.37-21.34 47.4-40.08 65.35a.24.24 0 0 0 .18.41q85.47-5.98 183.34-12.8 1.69-.11 2.94 1.24c2.35 2.53.12 5.25-2.6 6.03q-42.04 12.14-411.97 118.11-.07.02-.78.06a.01.01 0 0 0 0 .02q.04.02.09.02a.15.09-36.1 0 1-.1.22q-6.94 2.01-10.44 2.74a.02.02 0 0 0 .01.04Zm59.77-382.13C75.79 122.55 27.3 212.78 30.23 307.22q2.31 74.25 41.32 136.59a.69.67 66.2 0 0 .75.3q25.97-7.01 50.25-18.3 20.46-9.5 37.91-22.59c33.05-24.77 54.22-58.57 64.5-98.24 21.44-82.77 1.14-178.37-68.82-232.91a.52.51 47.8 0 0-.6-.03Z"/><path fill="#c90119" d="M95.76 454.13q3.5-.73 10.44-2.74a.15.09-36.1 0 0 .1-.22q-.05 0-.09-.02a.01.01 0 0 1 0-.02q.71-.04.78-.06Q476.92 345.1 518.96 332.96c2.72-.78 4.95-3.5 2.6-6.03q-1.25-1.35-2.94-1.24-97.87 6.82-183.34 12.8a.24.24 0 0 1-.18-.41c18.74-17.95 34.45-39.98 40.08-65.35q7.9-35.61-6.52-69.18c-16.25-37.87-48.57-67.39-82.63-89.34-34.49-22.23-72.47-39.19-111.56-52.37a.36.35-49.7 0 1-.05-.65q36.62-19.28 77.1-26.66c72.9-13.29 148.18 3.76 207.88 47.67 68.67 50.48 108.82 128.24 110.57 213.8 1.7 83.61-37.21 164.89-103.65 216.73q-59.57 46.49-136.06 55.54c-96.25 11.38-191.57-31.5-248.51-109.39a.4.4 0 0 1 .21-.63l13.89-3.86a.05.04-9.2 0 0 .04-.04q-.03-.14-.12-.18a.02.02 0 0 1-.01-.04Z"/><path fill="#c90119" d="M155.54 72.04a.52.51 47.8 0 1 .6.03c69.96 54.54 90.26 150.14 68.82 232.91-10.28 39.67-31.45 73.47-64.5 98.24q-17.45 13.09-37.91 22.59-24.28 11.29-50.25 18.3a.69.67 66.2 0 1-.75-.3q-39.01-62.34-41.32-136.59C27.3 212.78 75.79 122.55 155.54 72.04Z"/></svg>